<svg xmlns="http://www.w3.org/2000/svg" width="210.1" height="32.102" viewBox="0 0 210.1 32.102">
  <g id="logo" transform="translate(0 0.1)">
    <path id="Pfad_1" data-name="Pfad 1" d="M17.7.6V12.5H8.3V.6H0v31H8.3v-12h9.4v12H26V.6H17.7ZM39.7,32c7.2,0,11.5-3.7,11.5-9.7,0-4.3-1.9-6.9-6.7-8.9l-4.2-1.8c-2-.9-2.7-1.5-2.7-2.6,0-1.4,1.4-2.3,3.5-2.3,3.3,0,6,1.6,6.8,1.6a.735.735,0,0,0,.6-.2.55.55,0,0,0,.3-.5l1.9-5.3A20.885,20.885,0,0,0,40.9-.1C34-.1,29.5,3.6,29.5,9c0,4.2,1.9,7,6.2,8.9l4.9,2.2c1.6.7,2.3,1.5,2.3,2.6,0,1.7-1.2,2.5-3.7,2.5-3.8,0-7.1-1.7-7.8-1.7a1.072,1.072,0,0,0-.6.2,1,1,0,0,0-.4.5l-1.5,5.5A26.252,26.252,0,0,0,39.7,32Zm35.5-.5v-6c0-.8-.3-1.1-1.1-1.1H63.6V.6H55.3v31H75.2Zm14.6.5c8.6,0,12.9-4.5,12.9-13.6V.6H94.4V17.8c0,5.1-1.3,7-4.6,7s-4.6-1.9-4.6-7V.6H76.9V18.5c-.1,9,4.2,13.6,12.9,13.5Z"/>
    <path id="Pfad_2" data-name="Pfad 2" d="M111.1,31.5h7.2c.3,0,.5-.1.5-.5V29.6c0-.1-.1-.1-.1-.2a.349.349,0,0,0-.2-.1h-5.4V18.1c0-.4-.1-.5-.5-.5H111a.472.472,0,0,0-.5.5V31C110.5,31.4,110.7,31.5,111.1,31.5Zm12.6.3a4.816,4.816,0,0,0,3.2-1.3v.6c0,.3.2.4.5.4h1.3c.4,0,.5-.2.5-.5V22.1a.472.472,0,0,0-.5-.5h-1.5c-.3,0-.5.1-.5.5v6.5a4.286,4.286,0,0,1-2.4,1c-1,0-1.5-.6-1.5-2V22c0-.3-.1-.5-.5-.5H121c-.4,0-.5.2-.5.5v6c-.1,2.5,1,3.8,3.2,3.8ZM134,29.7l4.4-6.4a1.445,1.445,0,0,0,.2-.7V22c0-.2-.1-.4-.5-.4h-6.5a.366.366,0,0,0-.4.4v.9c0,.4.1.5.5.5h3.7l-4.3,6.4a.844.844,0,0,0-.2.7v.7c0,.1.1.1.1.2a.349.349,0,0,0,.2.1h7.3a.1.1,0,0,0,.1-.1l.1-.1V30c0-.3-.2-.3-.4-.3Zm10.7,2.1a10.3,10.3,0,0,0,3.5-.6c.1,0,.1-.1.2-.1a.349.349,0,0,0,.1-.2v-.4l-.3-1c-.1-.2-.2-.3-.5-.2a6.963,6.963,0,0,1-2.5.5,2.883,2.883,0,0,1-2-.7,2.842,2.842,0,0,1-.9-1.9h6c.5,0,.7-.1.7-.6v-.3c0-3-1.6-4.9-4.2-4.9a4.909,4.909,0,0,0-5.1,5.2c-.1,3.2,1.8,5.2,5,5.2Zm-2.5-6.3a2.183,2.183,0,0,1,3.1-2.1,3.112,3.112,0,0,1,.6.4,1.612,1.612,0,0,1,.4.7,1.949,1.949,0,0,1,.1.8v.2Zm9.1,6h1.5a.472.472,0,0,0,.5-.5V24.5a2.178,2.178,0,0,1,.9-.7,2.016,2.016,0,0,1,1.1-.3h.6c.3,0,.4,0,.4-.3l.2-1.5v-.2c0-.1,0-.1-.1-.2a.821.821,0,0,0-.7-.1,2.3,2.3,0,0,0-1.4.4,3.46,3.46,0,0,0-1.1,1V22c0-.3-.2-.4-.5-.4h-1.4c-.4,0-.5.1-.5.5V31c0,.4.1.5.5.5Zm7,0h1.5c.4,0,.5-.2.5-.5V24.5a4,4,0,0,1,2.3-1c1.1,0,1.6.6,1.6,2V31c0,.4.2.5.5.5h1.5a.472.472,0,0,0,.5-.5V25c0-2.4-1.1-3.6-3.2-3.6a5.069,5.069,0,0,0-3.3,1.3V22c0-.3-.2-.4-.5-.4h-1.5c-.1,0-.1.1-.2.1a.349.349,0,0,0-.1.2v9.3c0,.1.1.1.1.2a.349.349,0,0,0,.2.1Z"/>
    <path id="Pfad_3" data-name="Pfad 3" d="M112.7,14.5c.3,0,.5-.1.5-.5V8.4h5.7V14c0,.4.2.5.5.5H121c.3,0,.5-.1.5-.5V1c0-.4-.2-.5-.5-.5h-1.6c-.3,0-.5.1-.5.5V6.1h-5.7V1c0-.4-.2-.5-.5-.5h-1.6c-.3,0-.6.1-.6.5V14c0,.4.2.5.6.5Zm15.6.2a4.831,4.831,0,0,0,5-5.2c0-3.3-1.8-5.2-4.9-5.2s-5,2-5,5.2c0,3.3,1.9,5.3,4.9,5.2Zm0-1.9c-1.5,0-2.3-1.2-2.3-3.3,0-2,.9-3.2,2.4-3.2s2.3,1.1,2.3,3.2S129.8,12.8,128.3,12.8Zm11.4,1.9a8.025,8.025,0,0,0,3-.6c.3-.1.3-.3.2-.6l-.3-1c-.1-.2-.2-.2-.4-.2a5.374,5.374,0,0,1-2.1.5c-1.7,0-2.7-1.2-2.7-3.3s1-3.2,2.8-3.2a4.767,4.767,0,0,1,2,.4c.2.1.4.1.5-.2l.3-1.1c.1-.3,0-.4-.2-.5a6.6,6.6,0,0,0-2.7-.6c-3.1,0-5.1,2.1-5.1,5.3-.2,3.2,1.6,5.1,4.7,5.1Zm5.4-.2h1.6c.3,0,.4-.2.4-.5V7.5a4.589,4.589,0,0,1,2.5-1c1.2,0,1.5.8,1.5,2V14c0,.4.2.5.5.5H153c.4,0,.5-.1.5-.5V8c0-2.2-.9-3.6-3.2-3.6a4.717,4.717,0,0,0-3.2,1.2V1c0-.4-.2-.5-.5-.5h-1.3c-.3,0-.6.1-.6.5V14.2c0,.1.1.1.1.2a.349.349,0,0,0,.2.1Zm13.7.2c2.4,0,4-1.3,4-3.2a2.767,2.767,0,0,0-.5-1.6,2.434,2.434,0,0,0-1.4-1L159,8.2c-.7-.3-1-.6-1-1.1s.5-.9,1.2-.9a4.558,4.558,0,0,1,2.3.5l.1.1h.2a.1.1,0,0,0,.1-.1l.1-.1.4-1.1c.1-.3,0-.4-.2-.5a7.653,7.653,0,0,0-3-.6c-2.2,0-3.7,1.2-3.7,2.9a2.715,2.715,0,0,0,.6,1.7,2.523,2.523,0,0,0,1.5,1l1.6.6c.9.3,1.2.7,1.2,1.2,0,.7-.6,1.1-1.6,1.1a7.052,7.052,0,0,1-2.5-.6.365.365,0,0,0-.5.2l-.4,1.1v.2l.1.1.1.1a7.111,7.111,0,0,0,3.2.7Zm10.1,0a8.025,8.025,0,0,0,3-.6c.3-.1.3-.3.2-.6l-.3-1c-.1-.2-.2-.2-.4-.2a5.374,5.374,0,0,1-2.1.5c-1.7,0-2.7-1.2-2.7-3.3s1-3.2,2.8-3.2a4.477,4.477,0,0,1,2,.4c.2.1.4.1.5-.2l.3-1.1c.1-.3,0-.4-.2-.5a6.6,6.6,0,0,0-2.7-.6c-3.1,0-5.1,2.1-5.1,5.3-.1,3.2,1.7,5.1,4.7,5.1Zm7.1-.2c.3,0,.4-.2.4-.5V7.5a4.589,4.589,0,0,1,2.5-1c1.2,0,1.5.8,1.5,2V14c0,.4.2.5.5.5h1.4c.4,0,.5-.1.5-.5V8c0-2.2-.9-3.6-3.2-3.6a4.717,4.717,0,0,0-3.2,1.2V1c0-.4-.2-.5-.5-.5h-1.4c-.3,0-.5.1-.5.5V14.2c0,.1.1.1.1.2a.349.349,0,0,0,.2.1H176Zm12.3.2a4.816,4.816,0,0,0,3.2-1.3V14c0,.3.2.4.5.4h1.3c.4,0,.5-.2.5-.5V5.1a.472.472,0,0,0-.5-.5H192c-.3,0-.5.1-.5.5v6.5a4.286,4.286,0,0,1-2.4,1c-1,0-1.5-.6-1.5-2V5.1c0-.3-.1-.5-.5-.5h-1.4c-.4,0-.5.2-.5.5v6c-.1,2.4,1,3.7,3.1,3.6Zm8.5-.2h1.6c.3,0,.4-.2.4-.5V1c0-.4-.2-.5-.5-.5h-1.4c-.3,0-.5.1-.5.5V14.2c0,.1.1.1.1.2a.349.349,0,0,0,.2.1Zm9.1.2a10.3,10.3,0,0,0,3.5-.6c.1,0,.1,0,.2-.1l.1-.1v-.4l-.3-1.1c-.1-.2-.2-.3-.5-.2a6.963,6.963,0,0,1-2.5.5,2.883,2.883,0,0,1-2-.7,2.842,2.842,0,0,1-.9-1.9h5.9c.5,0,.7-.1.7-.6V9.2c0-3-1.6-4.9-4.2-4.9a4.909,4.909,0,0,0-5.1,5.2c0,3.3,1.9,5.3,5.1,5.2Zm-2.5-6.2a2.183,2.183,0,0,1,3.1-2.1,3.112,3.112,0,0,1,.6.4,1.612,1.612,0,0,1,.4.7,1.949,1.949,0,0,1,.1.8v.2Z"/>
  </g>
</svg>
